<svg width="120" height="30" viewBox="0 0 120 30" fill="none" xmlns="http://www.w3.org/2000/svg">
  <rect width="120" height="30" rx="4" fill="white"/>
  <path d="M10.5 7.5C10.5 6.11929 11.6193 5 13 5H17C18.3807 5 19.5 6.11929 19.5 7.5V22.5C19.5 23.8807 18.3807 25 17 25H13C11.6193 25 10.5 23.8807 10.5 22.5V7.5Z" fill="#3B82F6"/>
  <path d="M22.5 7.5C22.5 6.11929 23.6193 5 25 5H29C30.3807 5 31.5 6.11929 31.5 7.5V22.5C31.5 23.8807 30.3807 25 29 25H25C23.6193 25 22.5 23.8807 22.5 22.5V7.5Z" fill="#3B82F6"/>
  <path d="M37.2188 21V9.54545H41.0284C41.9176 9.54545 42.6534 9.70312 43.2358 10.0185C43.8182 10.3338 44.2528 10.7741 44.5398 11.3395C44.8267 11.9048 44.9702 12.5568 44.9702 13.2955C44.9702 14.0341 44.8267 14.6861 44.5398 15.2514C44.2528 15.8168 43.8182 16.2571 43.2358 16.5724C42.6534 16.8878 41.9176 17.0455 41.0284 17.0455H38.6037V21H37.2188ZM38.6037 15.8182H40.9702C41.5696 15.8182 42.0625 15.7159 42.4489 15.5114C42.8352 15.3068 43.1222 15.0199 43.3097 14.6506C43.5 14.2812 43.5952 13.8295 43.5852 13.2955C43.5952 12.7614 43.5 12.3097 43.3097 11.9403C43.1222 11.571 42.8352 11.2841 42.4489 11.0795C42.0625 10.875 41.5696 10.7727 40.9702 10.7727H38.6037V15.8182Z" fill="#1F2937"/>
  <path d="M46.7578 21V9.54545H48.1427V15.3636H48.2876L53.1293 9.54545H54.8565L50.5838 14.6364L54.9156 21H53.2173L49.6293 15.5455L48.1427 17.3182V21H46.7578Z" fill="#1F2937"/>
  <path d="M56.4077 21V9.54545H57.7926V15.3636H57.9375L62.7792 9.54545H64.5064L60.2337 14.6364L64.5655 21H62.8672L59.2792 15.5455L57.7926 17.3182V21H56.4077Z" fill="#1F2937"/>
  <path d="M65.5696 21V9.54545H72.2969V10.7727H66.9545V14.5455H71.8821V15.7727H66.9545V19.7727H72.3821V21H65.5696Z" fill="#1F2937"/>
  <path d="M74.1634 21V9.54545H75.5483V19.7727H80.8452V21H74.1634Z" fill="#1F2937"/>
  <path d="M82.1634 21V9.54545H88.8906V10.7727H83.5483V14.5455H88.4759V15.7727H83.5483V19.7727H88.9759V21H82.1634Z" fill="#1F2937"/>
  <path d="M90.7571 21V9.54545H94.5668C95.456 9.54545 96.1918 9.69886 96.7741 10.0057C97.3565 10.3097 97.7912 10.7386 98.0781 11.2926C98.3651 11.8466 98.5085 12.4858 98.5085 13.2102C98.5085 13.9347 98.3651 14.5767 98.0781 15.1364C97.7912 15.696 97.3565 16.1307 96.7741 16.4403C96.1918 16.75 95.456 16.9048 94.5668 16.9048H92.142V21H90.7571ZM92.142 15.6818H94.5085C95.108 15.6818 95.6009 15.5824 95.9872 15.3835C96.3736 15.1847 96.6605 14.9034 96.848 14.5398C97.0384 14.1733 97.1335 13.7301 97.1236 13.2102C97.1335 12.6903 97.0384 12.2528 96.848 11.8977C96.6605 11.5398 96.3736 11.267 95.9872 11.0795C95.6009 10.8892 95.108 10.794 94.5085 10.794H92.142V15.6818Z" fill="#1F2937"/>
  <path d="M100.296 21V9.54545H101.681V14.5455H107.04V9.54545H108.425V21H107.04V15.7727H101.681V21H100.296Z" fill="#1F2937"/>
  <path d="M110.699 21V9.54545H117.426V10.7727H112.084V14.5455H117.011V15.7727H112.084V19.7727H117.511V21H110.699Z" fill="#1F2937"/>
</svg> 